<svg id="Capa_1" enable-background="new 0 0 512 512" height="512" viewBox="0 0 512 512" width="512" xmlns="http://www.w3.org/2000/svg"><g><path d="m371.5 36h-70.933l2.062-7.63c1.842-6.817.437-13.942-3.856-19.548-4.293-5.607-10.804-8.822-17.865-8.822h-49.816c-7.061 0-13.572 3.215-17.864 8.822-4.293 5.606-5.698 12.731-3.856 19.549l2.061 7.629h-70.933c-23.435 0-42.5 19.065-42.5 42.5v50.032c0 4.142 3.357 7.5 7.5 7.5s7.5-3.358 7.5-7.5v-50.032c0-15.164 12.337-27.5 27.5-27.5h74.987l3.514 13h-5.001c-15.163 0-27.5 12.336-27.5 27.5s12.337 27.5 27.5 27.5h84c15.163 0 27.5-12.336 27.5-27.5s-12.337-27.5-27.5-27.5h-5.001l3.513-13h74.988c15.163 0 27.5 12.336 27.5 27.5v391c0 15.164-12.337 27.5-27.5 27.5h-231c-15.163 0-27.5-12.336-27.5-27.5v-305.734c0-4.142-3.357-7.5-7.5-7.5s-7.5 3.358-7.5 7.5v305.734c0 23.435 19.065 42.5 42.5 42.5h231c23.435 0 42.5-19.065 42.5-42.5v-391c0-23.435-19.065-42.5-42.5-42.5zm-146.362-18.06c1.431-1.869 3.601-2.94 5.954-2.94h49.816c2.354 0 4.523 1.072 5.954 2.94 1.432 1.869 1.9 4.244 1.286 6.516l-12.491 46.217c-.529 1.958-2.316 3.327-4.345 3.327h-30.625c-2.028 0-3.815-1.368-4.345-3.326l-12.491-46.217c-.614-2.272-.145-4.647 1.287-6.517zm85.362 73.56c0 6.893-5.607 12.5-12.5 12.5h-84c-6.893 0-12.5-5.607-12.5-12.5s5.607-12.5 12.5-12.5h9.663c3.388 6.057 9.856 10 17.025 10h30.625c7.168 0 13.637-3.943 17.025-10h9.662c6.893 0 12.5 5.607 12.5 12.5z"/><path d="m202.574 482h163.926c9.649 0 17.5-7.851 17.5-17.5v-311c0-9.649-7.851-17.5-17.5-17.5h-69.245c-4.143 0-7.5 3.358-7.5 7.5s3.357 7.5 7.5 7.5h69.245c1.379 0 2.5 1.122 2.5 2.5v311c0 1.378-1.121 2.5-2.5 2.5h-163.926c-4.143 0-7.5 3.358-7.5 7.5s3.358 7.5 7.5 7.5z"/><path d="m262.532 136h-117.032c-9.649 0-17.5 7.851-17.5 17.5v311c0 9.649 7.851 17.5 17.5 17.5h21.5c4.143 0 7.5-3.358 7.5-7.5s-3.357-7.5-7.5-7.5h-21.5c-1.379 0-2.5-1.122-2.5-2.5v-311c0-1.378 1.121-2.5 2.5-2.5h117.032c4.143 0 7.5-3.358 7.5-7.5s-3.357-7.5-7.5-7.5z"/><path d="m173 193.5v136c0 9.649 7.851 17.5 17.5 17.5h131c9.649 0 17.5-7.851 17.5-17.5v-31.947c0-4.142-3.357-7.5-7.5-7.5s-7.5 3.358-7.5 7.5v31.947c0 1.378-1.121 2.5-2.5 2.5h-13v-2.659c0-15.318-12.463-27.781-27.781-27.781h-49.438c-15.318 0-27.781 12.462-27.781 27.781v2.659h-13c-1.379 0-2.5-1.122-2.5-2.5v-136c0-1.378 1.121-2.5 2.5-2.5h131c1.379 0 2.5 1.122 2.5 2.5v69.202c0 4.142 3.357 7.5 7.5 7.5s7.5-3.358 7.5-7.5v-69.202c0-9.649-7.851-17.5-17.5-17.5h-131c-9.649 0-17.5 7.851-17.5 17.5zm45.5 135.841c0-7.047 5.733-12.781 12.781-12.781h49.438c7.048 0 12.781 5.733 12.781 12.781v2.659h-75z"/><path d="m221 251.199c0 19.299 15.701 35 35 35s35-15.701 35-35-15.701-35-35-35-35 15.7-35 35zm55 0c0 11.028-8.972 20-20 20s-20-8.972-20-20 8.972-20 20-20 20 8.972 20 20z"/><path d="m331.5 367h-151c-4.143 0-7.5 3.358-7.5 7.5s3.357 7.5 7.5 7.5h151c4.143 0 7.5-3.358 7.5-7.5s-3.357-7.5-7.5-7.5z"/><path d="m180.5 412h97c4.143 0 7.5-3.358 7.5-7.5s-3.357-7.5-7.5-7.5h-97c-4.143 0-7.5 3.358-7.5 7.5s3.357 7.5 7.5 7.5z"/><path d="m180.5 442h59c4.143 0 7.5-3.358 7.5-7.5s-3.357-7.5-7.5-7.5h-59c-4.143 0-7.5 3.358-7.5 7.5s3.357 7.5 7.5 7.5z"/><path d="m331.5 427h-62c-4.143 0-7.5 3.358-7.5 7.5s3.357 7.5 7.5 7.5h62c4.143 0 7.5-3.358 7.5-7.5s-3.357-7.5-7.5-7.5z"/></g></svg>